#!OML:ASF H:\LiuWeirdWalks\Patient Classification 1\Patient 1\Session 1\male.ASF
:FULLY-SPECIFIED
:DEGREES
143
root -0.149531 17.6475 1.65152 -0.515907 12.8878 -11.1775
lowerback 7.89863 1.10817 6.86914
upperback 0.948046 2.20023 3.2545
thorax -3.32007 1.02707 -0.705501
lowerneck -20.1282 -0.660664 3.38805
upperneck 8.13759 -1.06847 -5.25306
head 5.65445 -0.832563 -2.33871
rclavicle 1.36664e-015 -9.0447e-015
rhumerus -38.7989 4.38497 -83.9024
rradius 37.4611
rwrist -13.1017
rhand -12.1641 -3.54723
rfingers 7.12502
rthumb 13.8988 -33.0628
lclavicle 1.36664e-015 -9.0447e-015
lhumerus -49.5051 -0.224088 83.7092
lradius 38.0342
lwrist 7.10724
lhand -8.79587 -1.02311
lfingers 7.12502
lthumb 17.1429 28.2406
rfemur -1.91216 1.60502 35.039
rtibia 26.0657
rfoot -17.1731 -27.2349
rtoes 3.78553
lfemur -38.4386 -0.826463 -6.39277
ltibia 49.89
lfoot -8.69301 8.54327
ltoes -17.4444
144
root -0.134939 17.6276 1.83467 -0.385184 12.8752 -11.235
lowerback 7.7249 1.26271 6.8068
upperback 1.03279 2.37359 3.15706
thorax -3.12191 1.12039 -0.783182
lowerneck -19.9863 -0.750212 3.31506
upperneck 7.91727 -1.18467 -5.1595
head 5.55728 -0.88135 -2.30416
rclavicle 6.31141e-015 1.51076e-014
rhumerus -38.3915 4.8489 -84.1265
rradius 37.0185
rwrist -12.9571
rhand -12.2276 -3.48663
rfingers 7.12502
rthumb 13.8377 -33.0063
lclavicle 6.31141e-015 1.51076e-014
lhumerus -49.5018 0.4465 83.282
lradius 37.8125
lwrist 7.27331
lhand -9.52617 -0.778815
lfingers 7.12502
lthumb 16.4399 28.5446
rfemur -1.04519 1.60489 35.2314
rtibia 25.3832
rfoot -17.4002 -27.4151
rtoes 3.72372
lfemur -38.8751 -1.04762 -6.27002
ltibia 47.5405
lfoot -8.5958 8.93591
ltoes -17.5944
145
root -0.120118 17.6065 2.01939 -0.258381 12.8902 -11.2723
lowerback 7.55407 1.40017 6.71849
upperback 1.10886 2.52343 3.05251
thorax -2.9366 1.20182 -0.850376
lowerneck -19.8052 -0.843108 3.22999
upperneck 7.65861 -1.30447 -5.04919
head 5.44213 -0.930523 -2.26161
rclavicle 4.77829e-014 4.23411e-014
rhumerus -37.9777 5.29132 -84.3521
rradius 36.546
rwrist -12.6995
rhand -12.3539 -3.43035
rfingers 7.12502
rthumb 13.716 -32.9583
lclavicle 4.77829e-014 4.23411e-014
lhumerus -49.5186 1.07606 82.8656
lradius 37.5923
lwrist 7.45864
lhand -10.2665 -0.50383
lfingers 7.12502
lthumb 15.727 28.8771
rfemur -0.148111 1.59956 35.4079
rtibia 24.6593
rfoot -17.5765 -27.6246
rtoes 3.62865
lfemur -39.2578 -1.31978 -6.14163
ltibia 45.1667
lfoot -8.54238 9.29103
ltoes -17.6933
146
root -0.105045 17.5837 2.20594 -0.137569 12.9237 -11.3137
lowerback 7.39291 1.5285 6.63682
upperback 1.17108 2.66404 2.9415
thorax -2.77113 1.27777 -0.926389
lowerneck -19.6188 -0.942833 3.13422
upperneck 7.42 -1.43288 -4.91409
head 5.33279 -0.98253 -2.21032
rclavicle 5.86415e-015 3.57812e-015
rhumerus -37.5572 5.67931 -84.5749
rradius 36.0311
rwrist -12.3451
rhand -12.5315 -3.34804
rfingers 7.12502
rthumb 13.5447 -32.8875
lclavicle 5.86415e-015 3.57812e-015
lhumerus -49.5477 1.62245 82.4749
lradius 37.3691
lwrist 7.67472
lhand -10.9795 -0.20901
lfingers 7.12502
lthumb 15.0402 29.2247
rfemur 0.779145 1.59524 35.5953
rtibia 23.8879
rfoot -17.7004 -27.8571
rtoes 3.505
lfemur -39.6046 -1.63289 -5.97889
ltibia 42.8061
lfoot -8.54978 9.62056
ltoes -17.7315
147
root -0.0892511 17.5593 2.39464 -0.0195477 12.9675 -11.3466
lowerback 7.23523 1.64814 6.54875
upperback 1.22933 2.79376 2.8257
thorax -2.61244 1.34807 -1.00198
lowerneck -19.4039 -1.05099 3.02649
upperneck 7.16408 -1.57047 -4.76881
head 5.2138 -1.0385 -2.15409
rclavicle -5.37216e-014 -4.96962e-014
rhumerus -37.1122 6.02331 -84.7879
rradius 35.4893
rwrist -11.9464
rhand -12.7208 -3.26449
rfingers 7.12502
rthumb 13.3623 -32.816
lclavicle -5.37216e-014 -4.96962e-014
lhumerus -49.5595 2.10643 82.1132
lradius 37.1194
lwrist 7.88867
lhand -11.6161 0.0711137
lfingers 7.12502
lthumb 14.4269 29.5497
rfemur 1.70117 1.58913 35.7755
rtibia 23.1493
rfoot -17.8373 -28.1022
rtoes 3.36614
lfemur -39.9533 -1.98837 -5.79407
ltibia 40.5501
lfoot -8.64028 9.93253
ltoes -17.7078
